<svg class="swig-animation" xmlns="http://www.w3.org/2000/svg" width="24" height="24" viewBox="0 0 24 24" fill="none">
    <path fill-rule="evenodd" clip-rule="evenodd"
          d="M6.87522 3.00011L7.40651 3.5314L11.6702 7.79505L12.2005 8.32538L11.6702 8.85571L10.0845 10.4414C9.9047 10.6247 9.80397 10.8713 9.80397 11.1281C9.80397 11.3849 9.9047 11.6315 10.0845 11.8148L12.5413 14.2717C12.5416 14.272 12.5419 14.2723 12.5422 14.2725C12.7258 14.4542 12.9737 14.556 13.232 14.556C13.4902 14.556 13.7381 14.4542 13.9217 14.2725C13.922 14.2723 13.9223 14.272 13.9226 14.2717L15.5083 12.6859L16.0387 12.1556L16.569 12.6859L20.8326 16.9496L21.3649 17.4818L20.8307 18.0121L18.6105 20.2165C18.6101 20.2169 18.6096 20.2174 18.6092 20.2178C17.3158 21.5149 15.3066 21.6164 13.3253 21.0318C11.3126 20.4378 9.13026 19.0923 7.22431 17.1658C5.32216 15.243 3.96924 13.0543 3.36049 11.0404C2.76189 9.06014 2.83615 7.04496 4.13859 5.74659L6.3449 3.53235L6.87522 3.00011ZM6.87713 5.12334L5.20021 6.8063L5.19822 6.80829L5.19821 6.80829C4.47702 7.52666 4.26168 8.83768 4.79632 10.6064C5.32097 12.3421 6.52465 14.3257 8.29067 16.1108C10.0529 17.8921 12.023 19.0835 13.7499 19.5931C15.5076 20.1118 16.8244 19.8841 17.5478 19.1579L17.5507 19.1549L17.5507 19.1549L19.2397 17.478L16.0387 14.2769L14.981 15.3345L14.9788 15.3368C14.5142 15.7975 13.8863 16.056 13.232 16.056C12.5776 16.056 11.9497 15.7975 11.4851 15.3368L11.4829 15.3345L9.02155 12.8732L9.01761 12.8693L9.01762 12.8693C8.56032 12.4051 8.30397 11.7797 8.30397 11.1281C8.30397 10.4765 8.56032 9.8511 9.01762 9.38695L9.02153 9.38298L9.02155 9.383L10.0792 8.32538L6.87713 5.12334Z"
          fill="#160736"/>
</svg>
