<svg width="24" height="24" viewBox="0 0 24 24" fill="none" xmlns="http://www.w3.org/2000/svg">
<g id="i / shield">
<path id="Union" fill-rule="evenodd" clip-rule="evenodd" d="M12.527 3.02951L12.38 3.00009L12.2329 3.02951L4.60291 4.5555L4 4.67608V5.29094V11.2431V11.2432C4.00021 13.6099 4.82079 15.9035 6.322 17.7332C7.82322 19.563 9.91225 20.8158 12.2334 21.2784L12.38 21.3076L12.5266 21.2784C14.8477 20.8158 16.9367 19.563 18.4379 17.7332C19.9391 15.9035 20.7597 13.6099 20.7599 11.2432V11.2431V5.29094V4.67608L20.157 4.5555L12.527 3.02951ZM5.5 11.243V5.90579L12.38 4.5298L19.2599 5.90579V11.243V11.2431C19.2597 13.2629 18.5594 15.2203 17.2783 16.7818C16.0288 18.3047 14.3021 19.3594 12.38 19.7768C10.4578 19.3594 8.73114 18.3047 7.48165 16.7818C6.20049 15.2203 5.5002 13.2629 5.5 11.2431V11.243ZM11.96 14.6892L16.7217 9.91946L15.6602 8.85969L11.4288 13.0982L9.09933 10.7687L8.03867 11.8294L10.8989 14.6896L11.4297 15.2204L11.96 14.6892Z" fill="#160736"/>
</g>
</svg>
