<svg width="268" height="23" viewBox="0 0 268 23" fill="none" xmlns="http://www.w3.org/2000/svg">
<path d="M19.0469 0.879999V13.392C19.0469 16.3787 18.2469 18.6187 16.6469 20.112C15.0682 21.584 12.7215 22.32 9.60687 22.32C6.51354 22.32 4.16687 21.584 2.56687 20.112C0.966872 18.6187 0.166872 16.3787 0.166872 13.392V0.879999H5.70287V13.488C5.70287 15.0027 6.02287 16.1333 6.66287 16.88C7.32421 17.6267 8.30554 18 9.60687 18C10.9295 18 11.9109 17.6267 12.5509 16.88C13.2122 16.1333 13.5429 15.0027 13.5429 13.488V0.879999H19.0469ZM41.8616 0.879999V5.136H34.9816V22H29.4776V5.136H22.5656V0.879999H41.8616ZM54.4049 0.559999C56.5382 0.559999 58.3729 0.997333 59.9089 1.872C61.4662 2.72533 62.6609 3.96267 63.4929 5.584C64.3249 7.20533 64.7409 9.15733 64.7409 11.44C64.7409 13.7227 64.3249 15.6747 63.4929 17.296C62.6609 18.9173 61.4662 20.1653 59.9089 21.04C58.3729 21.8933 56.5382 22.32 54.4049 22.32C52.2715 22.32 50.4262 21.8933 48.8689 21.04C47.3115 20.1653 46.1169 18.9173 45.2849 17.296C44.4529 15.6747 44.0369 13.7227 44.0369 11.44C44.0369 9.15733 44.4529 7.20533 45.2849 5.584C46.1169 3.96267 47.3115 2.72533 48.8689 1.872C50.4262 0.997333 52.2715 0.559999 54.4049 0.559999ZM54.4049 4.88C53.3809 4.88 52.5169 5.12533 51.8129 5.616C51.1089 6.10667 50.5755 6.84267 50.2129 7.824C49.8502 8.784 49.6689 9.98933 49.6689 11.44C49.6689 12.8693 49.8502 14.0747 50.2129 15.056C50.5755 16.0373 51.1089 16.7733 51.8129 17.264C52.5169 17.7547 53.3809 18 54.4049 18C55.4289 18 56.2822 17.7547 56.9649 17.264C57.6689 16.7733 58.2022 16.0373 58.5649 15.056C58.9275 14.0747 59.1089 12.8693 59.1089 11.44C59.1089 9.98933 58.9275 8.784 58.5649 7.824C58.2022 6.84267 57.6689 6.10667 56.9649 5.616C56.2822 5.12533 55.4289 4.88 54.4049 4.88ZM79.0226 0.879999C80.7506 0.879999 82.2226 1.15733 83.4386 1.712C84.6546 2.26667 85.5826 3.06667 86.2226 4.112C86.8626 5.15733 87.1826 6.42667 87.1826 7.92C87.1826 9.41333 86.8626 10.6827 86.2226 11.728C85.5826 12.7733 84.6546 13.5733 83.4386 14.128C82.2226 14.6827 80.7506 14.96 79.0226 14.96H74.8306V22H69.3266V0.879999H79.0226ZM78.1586 10.832C79.3106 10.832 80.1746 10.5973 80.7506 10.128C81.348 9.63733 81.6466 8.90133 81.6466 7.92C81.6466 6.93867 81.348 6.21333 80.7506 5.744C80.1746 5.25333 79.3106 5.008 78.1586 5.008H74.8306V10.832H78.1586ZM97.0056 0.879999V22H91.5016V0.879999H97.0056ZM121.689 22H116.025L114.553 17.232H107.321L105.817 22H100.281L107.705 0.879999H114.297L121.689 22ZM108.345 13.488H113.529L110.937 4.944L108.345 13.488ZM143.985 0.879999V22H137.873L131.313 10.576L129.713 7.44H129.681L129.809 11.344V22H124.945V0.879999H131.057L137.617 12.304L139.217 15.44H139.249L139.121 11.536V0.879999H143.985ZM176.618 0.879999V5.136H169.738V22H164.234V5.136H157.322V0.879999H176.618ZM189.161 0.559999C191.294 0.559999 193.129 0.997333 194.665 1.872C196.222 2.72533 197.417 3.96267 198.249 5.584C199.081 7.20533 199.497 9.15733 199.497 11.44C199.497 13.7227 199.081 15.6747 198.249 17.296C197.417 18.9173 196.222 20.1653 194.665 21.04C193.129 21.8933 191.294 22.32 189.161 22.32C187.028 22.32 185.182 21.8933 183.625 21.04C182.068 20.1653 180.873 18.9173 180.041 17.296C179.209 15.6747 178.793 13.7227 178.793 11.44C178.793 9.15733 179.209 7.20533 180.041 5.584C180.873 3.96267 182.068 2.72533 183.625 1.872C185.182 0.997333 187.028 0.559999 189.161 0.559999ZM189.161 4.88C188.137 4.88 187.273 5.12533 186.569 5.616C185.865 6.10667 185.332 6.84267 184.969 7.824C184.606 8.784 184.425 9.98933 184.425 11.44C184.425 12.8693 184.606 14.0747 184.969 15.056C185.332 16.0373 185.865 16.7733 186.569 17.264C187.273 17.7547 188.137 18 189.161 18C190.185 18 191.038 17.7547 191.721 17.264C192.425 16.7733 192.958 16.0373 193.321 15.056C193.684 14.0747 193.865 12.8693 193.865 11.44C193.865 9.98933 193.684 8.784 193.321 7.824C192.958 6.84267 192.425 6.10667 191.721 5.616C191.038 5.12533 190.185 4.88 189.161 4.88ZM222.547 0.879999V13.392C222.547 16.3787 221.747 18.6187 220.147 20.112C218.568 21.584 216.222 22.32 213.107 22.32C210.014 22.32 207.667 21.584 206.067 20.112C204.467 18.6187 203.667 16.3787 203.667 13.392V0.879999H209.203V13.488C209.203 15.0027 209.523 16.1333 210.163 16.88C210.824 17.6267 211.806 18 213.107 18C214.43 18 215.411 17.6267 216.051 16.88C216.712 16.1333 217.043 15.0027 217.043 13.488V0.879999H222.547ZM237.682 0.879999C240.199 0.879999 242.151 1.47733 243.538 2.672C244.946 3.84533 245.65 5.41333 245.65 7.376C245.65 9.53067 244.956 11.1733 243.57 12.304C242.183 13.4347 240.231 14 237.714 14L237.202 14.288H233.01V22H227.602V0.879999H237.682ZM236.914 10.384C237.98 10.384 238.78 10.1707 239.314 9.744C239.847 9.31733 240.114 8.63467 240.114 7.696C240.114 6.77867 239.847 6.10667 239.314 5.68C238.78 5.25333 237.98 5.04 236.914 5.04H233.01V10.384H236.914ZM240.146 11.536L246.898 22H240.818L235.41 12.752L240.146 11.536ZM258.72 0.559999C260.683 0.559999 262.411 0.869333 263.904 1.488C265.419 2.08533 266.731 2.97067 267.84 4.144L265.184 7.696C264.267 6.736 263.275 6.02133 262.208 5.552C261.163 5.06133 259.968 4.816 258.624 4.816C257.835 4.816 257.195 4.90133 256.704 5.072C256.213 5.24267 255.861 5.47733 255.648 5.776C255.435 6.07467 255.328 6.416 255.328 6.8C255.328 7.248 255.531 7.632 255.936 7.952C256.363 8.25067 257.045 8.50667 257.984 8.72L261.536 9.52C263.648 10.0107 265.195 10.7253 266.176 11.664C267.157 12.6027 267.648 13.8507 267.648 15.408C267.648 16.9013 267.264 18.1707 266.496 19.216C265.728 20.24 264.672 21.0187 263.328 21.552C261.984 22.064 260.448 22.32 258.72 22.32C257.312 22.32 255.968 22.1707 254.688 21.872C253.408 21.552 252.256 21.104 251.232 20.528C250.208 19.952 249.344 19.2907 248.64 18.544L251.296 14.864C251.829 15.4827 252.48 16.0373 253.248 16.528C254.037 16.9973 254.891 17.3707 255.808 17.648C256.747 17.9253 257.696 18.064 258.656 18.064C259.403 18.064 260.021 17.9893 260.512 17.84C261.024 17.6907 261.397 17.4667 261.632 17.168C261.867 16.8693 261.984 16.5173 261.984 16.112C261.984 15.664 261.824 15.2907 261.504 14.992C261.184 14.672 260.576 14.4053 259.68 14.192L255.776 13.328C254.581 13.0507 253.515 12.688 252.576 12.24C251.659 11.7707 250.933 11.152 250.4 10.384C249.867 9.59467 249.6 8.61333 249.6 7.44C249.6 6.11733 249.963 4.944 250.688 3.92C251.413 2.87467 252.459 2.05333 253.824 1.456C255.189 0.858666 256.821 0.559999 258.72 0.559999Z" fill="white"/>
</svg>
