<svg width="295" height="47" viewBox="0 0 295 47" fill="none" xmlns="http://www.w3.org/2000/svg">
<path opacity="0.8" d="M9.038 27.168C8.254 27.168 7.708 26.874 7.4 26.286C7.092 25.698 6.938 24.858 6.938 23.766C6.938 23.626 6.938 23.486 6.938 23.346C6.938 23.178 6.952 23.024 6.98 22.884C6.56 23.696 5.874 24.494 4.922 25.278C3.886 26.202 2.976 26.664 2.192 26.664C1.688 26.664 1.24 26.37 0.848 25.782C0.54 25.222 0.386 24.662 0.386 24.102C0.386 23.15 0.624 22.072 1.1 20.868C1.604 19.356 2.248 18.6 3.032 18.6C3.312 18.6 3.466 18.782 3.494 19.146C2.402 21.022 1.856 22.52 1.856 23.64C1.856 24.732 2.192 25.278 2.864 25.278C4.292 25.278 5.846 23.738 7.526 20.658C7.582 20.49 7.666 20.294 7.778 20.07C7.918 19.818 8.072 19.552 8.24 19.272C8.324 19.02 8.702 18.894 9.374 18.894C9.598 18.894 9.71 18.978 9.71 19.146L9.248 20.448C9.024 21.064 8.87 21.652 8.786 22.212C8.702 22.772 8.66 23.29 8.66 23.766C8.66 25.306 9.024 26.076 9.752 26.076C10.312 26.076 10.998 25.726 11.81 25.026C12.65 24.326 13.42 23.5 14.12 22.548C14.204 22.464 14.274 22.422 14.33 22.422C14.442 22.422 14.498 22.52 14.498 22.716C14.498 22.912 14.428 23.094 14.288 23.262C13.168 24.746 12.174 25.768 11.306 26.328C10.466 26.888 9.71 27.168 9.038 27.168ZM13.9612 27.378C13.7652 27.378 13.5552 27.252 13.3312 27C13.1352 26.748 13.0372 26.524 13.0372 26.328V26.202L13.4152 25.488C13.6392 24.844 13.8632 24.074 14.0872 23.178C14.3112 22.254 14.5212 21.204 14.7172 20.028C14.7452 19.748 14.7872 19.454 14.8432 19.146C14.8992 18.81 14.9552 18.432 15.0112 18.012C15.1512 17.452 15.5852 17.172 16.3132 17.172C16.5372 17.172 16.6492 17.256 16.6492 17.424C16.6492 17.48 16.6212 17.676 16.5652 18.012C16.5092 18.348 16.4252 18.81 16.3132 19.398C16.2012 20.042 16.0612 20.742 15.8932 21.498C15.7532 22.254 15.5852 23.066 15.3892 23.934L17.3632 20.616C18.3432 18.964 19.1692 18.138 19.8412 18.138C20.2612 18.138 20.4852 18.39 20.5132 18.894C20.5972 20.07 20.6532 21.232 20.6812 22.38C20.7372 23.528 20.8912 24.48 21.1432 25.236C21.4232 25.992 21.9132 26.37 22.6132 26.37C23.0892 26.37 23.5512 26.272 23.9992 26.076C24.4752 25.88 25.0072 25.516 25.5952 24.984C26.1832 24.424 26.8832 23.612 27.6952 22.548C27.7232 22.492 27.7792 22.422 27.8632 22.338C27.9472 22.254 28.0452 22.212 28.1572 22.212C28.2692 22.212 28.3252 22.268 28.3252 22.38C28.3252 22.492 28.2552 22.646 28.1152 22.842C28.0032 23.038 27.9192 23.178 27.8632 23.262C27.1072 24.382 26.2532 25.32 25.3012 26.076C24.3492 26.832 23.4532 27.21 22.6132 27.21C21.3812 27.21 20.4712 26.594 19.8832 25.362C19.3232 24.102 18.9312 22.324 18.7072 20.028C18.2592 20.504 17.7272 21.218 17.1112 22.17C16.5232 23.122 15.8372 24.34 15.0532 25.824C14.9972 25.964 14.9132 26.132 14.8012 26.328C14.6892 26.496 14.5632 26.72 14.4232 27C14.3112 27.252 14.1572 27.378 13.9612 27.378ZM27.1174 42.96C26.3894 42.96 25.8014 42.61 25.3534 41.91C24.9054 41.238 24.5834 40.412 24.3874 39.432C24.1634 38.48 24.0514 37.584 24.0514 36.744C24.0514 34.476 24.4014 31.914 25.1014 29.058C25.8014 26.23 26.8514 23.122 28.2514 19.734C28.7274 18.614 29.2174 17.382 29.7214 16.038C30.2534 14.694 30.8134 13.252 31.4014 11.712C31.7654 10.788 32.1714 9.78 32.6194 8.688C33.0674 7.568 33.5854 6.364 34.1734 5.076C34.2574 4.936 34.3694 4.866 34.5094 4.866C34.7334 4.866 34.9994 4.992 35.3074 5.244C35.6154 5.468 35.7694 5.692 35.7694 5.916L34.9714 7.764L29.3014 20.196C29.4694 20 29.6654 19.902 29.8894 19.902C30.8134 19.902 31.7514 21.456 32.7034 24.564C32.9274 24.816 33.2774 25.026 33.7534 25.194C34.2294 25.334 34.6914 25.404 35.1394 25.404C35.9514 25.376 36.7634 25.124 37.5754 24.648C38.3874 24.144 39.1014 23.5 39.7174 22.716C39.7734 22.66 39.8434 22.59 39.9274 22.506C40.0394 22.422 40.1094 22.38 40.1374 22.38C40.2494 22.38 40.3054 22.464 40.3054 22.632C40.3054 22.716 40.2634 22.828 40.1794 22.968C40.1234 23.108 40.0674 23.206 40.0114 23.262C39.3114 24.186 38.4574 24.9 37.4494 25.404C36.4694 25.908 35.5314 26.16 34.6354 26.16C34.2714 26.16 33.9634 26.146 33.7114 26.118C33.4874 26.062 33.2914 26.02 33.1234 25.992C33.2634 26.44 33.3754 26.944 33.4594 27.504C33.5434 28.092 33.5854 28.694 33.5854 29.31C33.5854 30.29 33.4874 31.34 33.2914 32.46C33.0954 33.608 32.8014 34.798 32.4094 36.03C32.0734 37.15 31.6254 38.242 31.0654 39.306C30.5334 40.37 29.9314 41.238 29.2594 41.91C28.5874 42.61 27.8734 42.96 27.1174 42.96ZM27.3694 41.532C27.9294 41.532 28.4894 41.224 29.0494 40.608C29.6374 39.992 30.1694 39.236 30.6454 38.34C31.1214 37.472 31.4994 36.646 31.7794 35.862C32.0874 34.882 32.3114 33.916 32.4514 32.964C32.6194 32.04 32.7034 31.116 32.7034 30.192C32.7034 29.352 32.6334 28.498 32.4934 27.63C32.3534 26.79 32.1434 25.936 31.8634 25.068C30.0154 23.976 29.0494 22.618 28.9654 20.994L28.7554 21.624C28.6714 21.96 28.5314 22.38 28.3354 22.884C28.1394 23.36 27.9294 23.934 27.7054 24.606C26.0814 29.394 25.2694 33.286 25.2694 36.282C25.2694 37.01 25.3394 37.78 25.4794 38.592C25.6194 39.432 25.8434 40.132 26.1514 40.692C26.4594 41.252 26.8654 41.532 27.3694 41.532ZM40.98 27.756C39.944 27.756 39.426 27 39.426 25.488C39.426 25.096 39.468 24.662 39.552 24.186C39.636 23.71 39.748 23.206 39.888 22.674C40.168 21.694 40.588 20.588 41.148 19.356C41.988 17.62 42.688 16.752 43.248 16.752C43.78 16.752 44.214 17.046 44.55 17.634C44.774 17.55 44.956 17.508 45.096 17.508C45.88 17.508 46.272 18.096 46.272 19.272C46.272 19.776 46.174 20.364 45.978 21.036C45.782 21.708 45.446 22.548 44.97 23.556C45.67 24.2 46.356 24.522 47.028 24.522C47.56 24.522 48.064 24.396 48.54 24.144C49.016 23.864 49.548 23.332 50.136 22.548C50.192 22.492 50.276 22.464 50.388 22.464C50.472 22.464 50.514 22.548 50.514 22.716C50.514 22.884 50.444 23.066 50.304 23.262C49.94 23.738 49.478 24.172 48.918 24.564C48.386 24.928 47.714 25.11 46.902 25.11C46.09 25.11 45.362 24.83 44.718 24.27C43.654 26.594 42.408 27.756 40.98 27.756ZM44.466 23.01C44.69 22.506 44.858 21.988 44.97 21.456C45.082 20.924 45.138 20.35 45.138 19.734C45.138 18.782 44.858 18.306 44.298 18.306C43.766 18.306 43.5 18.824 43.5 19.86C43.5 20.308 43.598 20.854 43.794 21.498C44.018 22.142 44.242 22.646 44.466 23.01ZM41.736 26.58C42.128 26.58 42.618 26.202 43.206 25.446C43.458 25.138 43.668 24.83 43.836 24.522C44.004 24.186 44.116 23.962 44.172 23.85C43.752 23.374 43.388 22.87 43.08 22.338C42.772 21.806 42.59 21.26 42.534 20.7C42.198 20.98 41.848 21.708 41.484 22.884C41.12 24.06 40.938 24.914 40.938 25.446C40.938 26.202 41.204 26.58 41.736 26.58ZM56.8609 27.21C55.8529 27.21 55.3489 26.58 55.3489 25.32C55.3489 24.648 55.6009 23.808 56.1049 22.8C56.5809 21.68 56.8189 20.868 56.8189 20.364C56.8189 20 56.6789 19.72 56.3989 19.524C56.1469 19.328 55.8249 19.146 55.4329 18.978C55.1529 18.838 54.8589 18.67 54.5509 18.474C54.2429 18.278 53.9909 18.082 53.7949 17.886C53.5989 18.306 53.1649 19.034 52.4929 20.07C51.8209 21.106 51.0929 22.17 50.3089 23.262C50.1969 23.402 50.0849 23.472 49.9729 23.472C49.8609 23.472 49.8049 23.374 49.8049 23.178C49.8049 22.982 49.9169 22.772 50.1409 22.548C50.3649 22.268 50.6869 21.82 51.1069 21.204C51.5269 20.56 51.9469 19.874 52.3669 19.146C52.7869 18.39 53.1089 17.732 53.3329 17.172C53.1929 16.696 53.0809 16.29 52.9969 15.954C52.9129 15.618 52.8709 15.282 52.8709 14.946C52.8709 14.358 53.0389 13.826 53.3749 13.35C53.7109 12.874 54.1449 12.636 54.6769 12.636C55.4329 12.636 55.8109 13.084 55.8109 13.98C55.8109 14.96 55.4329 15.982 54.6769 17.046C54.7889 17.214 54.9289 17.354 55.0969 17.466C55.2649 17.578 55.5309 17.704 55.8949 17.844C56.0909 17.928 56.2729 17.984 56.4409 18.012C56.6369 18.04 56.8049 18.054 56.9449 18.054C57.1689 18.054 57.3509 18.04 57.4909 18.012C57.6589 17.984 57.7989 17.97 57.9109 17.97C58.0789 17.97 58.2749 18.068 58.4989 18.264C58.7509 18.432 58.8769 18.698 58.8769 19.062C58.8769 19.258 58.8629 19.384 58.8349 19.44C58.8069 19.496 58.7229 19.734 58.5829 20.154C58.4709 20.546 58.2609 21.106 57.9529 21.834C57.3929 23.29 57.1129 24.312 57.1129 24.9C57.1129 25.684 57.3789 26.076 57.9109 26.076C58.4989 26.076 59.1989 25.726 60.0109 25.026C60.8509 24.326 61.6209 23.5 62.3209 22.548C62.4049 22.464 62.4749 22.422 62.5309 22.422C62.6429 22.422 62.6989 22.52 62.6989 22.716C62.6989 22.912 62.6289 23.094 62.4889 23.262C61.3689 24.746 60.3609 25.782 59.4649 26.37C58.5689 26.93 57.7009 27.21 56.8609 27.21ZM53.0415 45.816C49.0375 45.816 47.0355 44.108 47.0355 40.692C47.0355 35.092 54.5115 30.402 69.4635 26.622C69.5195 26.062 69.5755 25.348 69.6315 24.48C69.6875 23.612 69.7715 22.59 69.8835 21.414L67.1535 24.48C66.5655 25.124 65.9775 25.6 65.3895 25.908C64.8295 26.188 64.2835 26.328 63.7515 26.328C62.6595 26.328 62.1135 25.544 62.1135 23.976C62.1135 22.352 63.0515 20.798 64.9275 19.314C65.6835 18.698 66.4815 18.18 67.3215 17.76C68.1895 17.312 69.0995 16.948 70.0515 16.668C70.0515 16.248 70.3875 16.038 71.0595 16.038C71.4795 16.038 71.7315 16.15 71.8155 16.374C73.9155 16.374 74.9655 16.976 74.9655 18.18C74.9655 18.488 74.8255 18.852 74.5455 19.272C74.2935 19.664 74.0415 19.86 73.7895 19.86C73.7055 19.86 73.6635 19.818 73.6635 19.734C73.6635 19.678 73.7195 19.51 73.8315 19.23C73.9435 18.922 73.9995 18.67 73.9995 18.474C73.9995 17.774 73.5095 17.424 72.5295 17.424C72.4455 17.424 72.3475 17.424 72.2355 17.424C72.1515 17.424 72.0535 17.438 71.9415 17.466C71.9415 17.662 71.9135 18.054 71.8575 18.642C71.8295 19.202 71.7875 19.944 71.7315 20.868C71.6195 22.492 71.4515 24.312 71.2275 26.328C72.7115 26.076 73.8035 25.95 74.5035 25.95C75.7915 25.95 76.4355 26.132 76.4355 26.496C76.4355 26.664 76.3095 26.748 76.0575 26.748C75.9455 26.748 75.7355 26.72 75.4275 26.664C75.1475 26.608 74.9095 26.58 74.7135 26.58C73.5375 26.58 72.3195 26.748 71.0595 27.084C70.0515 35.092 66.4675 40.748 60.3075 44.052C58.1795 45.228 55.7575 45.816 53.0415 45.816ZM64.7175 24.858C65.4175 24.858 66.2435 24.396 67.1955 23.472C67.5875 23.108 67.9375 22.73 68.2455 22.338C68.5815 21.946 68.8755 21.554 69.1275 21.162C69.7435 20.266 70.0515 19.118 70.0515 17.718C67.8115 18.306 66.1875 19.216 65.1795 20.448C64.2275 21.652 63.7515 22.772 63.7515 23.808C63.7515 24.508 64.0735 24.858 64.7175 24.858ZM53.8815 44.85C56.1775 44.85 58.2495 44.416 60.0975 43.548C65.2775 41.196 68.3575 35.806 69.3375 27.378C55.2255 31.102 48.1695 35.4 48.1695 40.272C48.1695 43.324 50.0735 44.85 53.8815 44.85ZM80.0987 27.336C78.9507 27.336 77.9567 27.014 77.1167 26.37C76.3047 25.698 75.8987 24.69 75.8987 23.346C75.8987 21.862 76.3887 20.336 77.3687 18.768C77.8727 17.956 78.4887 17.312 79.2167 16.836C79.9447 16.332 80.5887 16.08 81.1487 16.08C81.9607 16.08 82.3667 16.57 82.3667 17.55C82.3667 18.39 81.8067 19.412 80.6867 20.616C79.6507 21.68 78.6707 22.408 77.7467 22.8C77.7187 22.912 77.6907 23.038 77.6627 23.178C77.6627 23.29 77.6627 23.416 77.6627 23.556C77.6627 25.32 78.7127 26.202 80.8127 26.202C82.0167 26.202 83.1367 25.838 84.1727 25.11C85.2367 24.354 86.1607 23.5 86.9447 22.548C87.0847 22.38 87.2107 22.296 87.3227 22.296C87.4347 22.296 87.4907 22.352 87.4907 22.464C87.4907 22.576 87.4347 22.73 87.3227 22.926C87.2107 23.094 87.1267 23.206 87.0707 23.262C86.6227 23.878 86.1467 24.424 85.6427 24.9C85.1667 25.376 84.5227 25.838 83.7107 26.286C83.1227 26.65 82.5067 26.916 81.8627 27.084C81.2467 27.252 80.6587 27.336 80.0987 27.336ZM77.9147 21.918C78.2787 21.722 78.6287 21.498 78.9647 21.246C79.3287 20.966 79.6787 20.644 80.0147 20.28C80.7707 19.384 81.1487 18.6 81.1487 17.928C81.1487 17.508 81.0227 17.298 80.7707 17.298C80.5467 17.298 80.2527 17.494 79.8887 17.886C79.5527 18.25 79.2307 18.712 78.9227 19.272C78.3907 20.364 78.0547 21.246 77.9147 21.918ZM92.0989 27.504C90.4749 27.504 89.2009 27.028 88.2769 26.076C87.3809 25.124 86.9329 23.794 86.9329 22.086C86.9329 20.686 87.1849 19.314 87.6889 17.97C86.8489 17.97 86.1909 17.886 85.7149 17.718C84.9309 17.55 84.5389 17.256 84.5389 16.836C84.5389 16.668 84.6649 16.584 84.9169 16.584C85.1129 16.584 85.3369 16.598 85.5889 16.626C85.8689 16.626 86.1909 16.64 86.5549 16.668C86.9469 16.696 87.2829 16.724 87.5629 16.752C87.8429 16.752 88.0669 16.752 88.2349 16.752L89.7049 13.308C90.0409 12.496 90.3489 11.838 90.6289 11.334C90.9089 10.83 91.1329 10.48 91.3009 10.284C91.7209 9.836 92.2809 9.612 92.9809 9.612C93.6529 9.612 93.9889 9.752 93.9889 10.032L92.5189 12.342C91.9869 13.182 91.5109 13.98 91.0909 14.736C90.6989 15.492 90.3489 16.206 90.0409 16.878C91.7769 16.878 93.1629 16.878 94.1989 16.878C95.2349 16.85 95.9349 16.836 96.2989 16.836H96.6349C96.9709 16.836 97.1389 16.878 97.1389 16.962C97.1389 17.13 96.8029 17.284 96.1309 17.424C94.9269 17.564 93.7929 17.676 92.7289 17.76C91.6649 17.844 90.6569 17.886 89.7049 17.886C89.4249 18.614 89.1869 19.384 88.9909 20.196C88.8229 20.98 88.7389 21.736 88.7389 22.464C88.7389 23.556 88.9909 24.508 89.4949 25.32C89.9989 26.132 90.8949 26.538 92.1829 26.538C93.7229 26.538 94.9409 26.174 95.8369 25.446C96.7609 24.69 97.6989 23.724 98.6509 22.548C98.7909 22.38 98.9169 22.296 99.0289 22.296C99.1129 22.296 99.1549 22.366 99.1549 22.506C99.1549 22.702 99.0429 22.954 98.8189 23.262C97.6149 24.802 96.4809 25.894 95.4169 26.538C94.3809 27.182 93.2749 27.504 92.0989 27.504ZM103.87 27.504C102.246 27.504 100.972 27.028 100.048 26.076C99.1524 25.124 98.7044 23.794 98.7044 22.086C98.7044 20.686 98.9564 19.314 99.4604 17.97C98.6204 17.97 97.9624 17.886 97.4864 17.718C96.7024 17.55 96.3104 17.256 96.3104 16.836C96.3104 16.668 96.4364 16.584 96.6884 16.584C96.8844 16.584 97.1084 16.598 97.3604 16.626C97.6404 16.626 97.9624 16.64 98.3264 16.668C98.7184 16.696 99.0544 16.724 99.3344 16.752C99.6144 16.752 99.8384 16.752 100.006 16.752L101.476 13.308C101.812 12.496 102.12 11.838 102.4 11.334C102.68 10.83 102.904 10.48 103.072 10.284C103.492 9.836 104.052 9.612 104.752 9.612C105.424 9.612 105.76 9.752 105.76 10.032L104.29 12.342C103.758 13.182 103.282 13.98 102.862 14.736C102.47 15.492 102.12 16.206 101.812 16.878C103.548 16.878 104.934 16.878 105.97 16.878C107.006 16.85 107.706 16.836 108.07 16.836H108.406C108.742 16.836 108.91 16.878 108.91 16.962C108.91 17.13 108.574 17.284 107.902 17.424C106.698 17.564 105.564 17.676 104.5 17.76C103.436 17.844 102.428 17.886 101.476 17.886C101.196 18.614 100.958 19.384 100.762 20.196C100.594 20.98 100.51 21.736 100.51 22.464C100.51 23.556 100.762 24.508 101.266 25.32C101.77 26.132 102.666 26.538 103.954 26.538C105.494 26.538 106.712 26.174 107.608 25.446C108.532 24.69 109.47 23.724 110.422 22.548C110.562 22.38 110.688 22.296 110.8 22.296C110.884 22.296 110.926 22.366 110.926 22.506C110.926 22.702 110.814 22.954 110.59 23.262C109.386 24.802 108.252 25.894 107.188 26.538C106.152 27.182 105.046 27.504 103.87 27.504ZM110.896 27.252C109.748 27.252 109.174 26.692 109.174 25.572C109.174 24.508 109.944 23.024 111.484 21.12C112.884 19.356 114.102 18.138 115.138 17.466C116.174 16.794 117.14 16.458 118.036 16.458C119.1 16.458 119.632 16.766 119.632 17.382C119.632 17.522 119.492 17.732 119.212 18.012C118.932 18.264 118.778 18.418 118.75 18.474C118.218 19.342 117.952 21.106 117.952 23.766C117.952 25.306 118.288 26.076 118.96 26.076C119.576 26.076 120.29 25.712 121.102 24.984C121.914 24.256 122.67 23.444 123.37 22.548C123.454 22.464 123.524 22.422 123.58 22.422C123.692 22.422 123.748 22.492 123.748 22.632C123.748 22.688 123.72 22.786 123.664 22.926C123.636 23.066 123.594 23.178 123.538 23.262C122.39 24.802 121.396 25.838 120.556 26.37C119.744 26.902 118.946 27.168 118.162 27.168C116.902 27.168 116.286 25.824 116.314 23.136C115.782 24.088 115.012 24.984 114.004 25.824C112.828 26.776 111.792 27.252 110.896 27.252ZM112.03 26.118C112.506 26.118 113.01 25.922 113.542 25.53C115.194 24.214 116.272 21.75 116.776 18.138C116.692 18.138 116.636 18.124 116.608 18.096C116.048 18.096 115.306 18.432 114.382 19.104C113.598 19.636 112.968 20.21 112.492 20.826C111.372 22.282 110.812 23.542 110.812 24.606C110.812 25.614 111.218 26.118 112.03 26.118ZM125.454 27.378C123.998 27.378 123.27 26.314 123.27 24.186C123.27 21.974 124.068 18.922 125.664 15.03C126.28 13.546 126.938 12.076 127.638 10.62C128.338 9.164 129.08 7.75 129.864 6.378C130.144 5.902 130.494 5.342 130.914 4.698C131.334 4.054 131.852 3.34 132.468 2.556C132.664 2.36 132.972 2.262 133.392 2.262C134.12 2.262 134.484 2.416 134.484 2.724C134.484 2.78 134.456 2.864 134.4 2.976C133.952 3.508 133.448 4.18 132.888 4.992C132.356 5.804 131.754 6.77 131.082 7.89C130.214 9.402 129.43 10.802 128.73 12.09C128.03 13.35 127.442 14.526 126.966 15.618C126.098 17.55 125.44 19.286 124.992 20.826C124.572 22.338 124.362 23.626 124.362 24.69C124.362 25.978 124.838 26.622 125.79 26.622C126.266 26.622 126.742 26.37 127.218 25.866C127.722 25.334 128.226 24.648 128.73 23.808C128.366 23.332 128.114 22.8 127.974 22.212C127.834 21.596 127.764 20.868 127.764 20.028C127.764 18.404 128.198 17.592 129.066 17.592C129.878 17.592 130.284 18.376 130.284 19.944C130.284 21.484 130.074 22.744 129.654 23.724C130.074 24.06 130.55 24.228 131.082 24.228C131.558 24.228 132.048 24.074 132.552 23.766C133.084 23.458 133.532 23.052 133.896 22.548C133.952 22.492 134.036 22.464 134.148 22.464C134.232 22.464 134.274 22.548 134.274 22.716C134.274 22.744 134.246 22.828 134.19 22.968C134.162 23.108 134.12 23.206 134.064 23.262C133.7 23.766 133.238 24.158 132.678 24.438C132.118 24.69 131.558 24.816 130.998 24.816C130.326 24.816 129.794 24.648 129.402 24.312C128.086 26.356 126.77 27.378 125.454 27.378ZM138.342 27.504C135.514 27.504 134.1 25.418 134.1 21.246C134.1 17.158 135.444 12.72 138.132 7.932C140.764 3.172 143.256 0.791999 145.608 0.791999C146.448 0.791999 147.008 1.366 147.288 2.514V3.06C147.288 5.076 145.734 8.478 142.626 13.266C141.31 15.338 140.064 17.144 138.888 18.684C137.74 20.224 136.662 21.526 135.654 22.59C135.99 25.11 137.152 26.37 139.14 26.37C140.344 26.37 141.366 26.034 142.206 25.362C143.046 24.662 143.942 23.724 144.894 22.548C145.062 22.38 145.174 22.296 145.23 22.296C145.314 22.296 145.356 22.366 145.356 22.506C145.356 22.702 145.258 22.954 145.062 23.262C143.858 24.802 142.724 25.894 141.66 26.538C140.596 27.182 139.49 27.504 138.342 27.504ZM135.696 21.54C137.208 20.056 139.182 17.116 141.618 12.72C144.194 8.044 145.482 4.824 145.482 3.06C145.482 2.276 145.258 1.884 144.81 1.884C143.074 1.884 141.1 4.376 138.888 9.36C137.852 11.824 137.054 14.064 136.494 16.08C135.962 18.096 135.696 19.916 135.696 21.54ZM148.267 27.336C147.119 27.336 146.125 27.014 145.285 26.37C144.473 25.698 144.067 24.69 144.067 23.346C144.067 21.862 144.557 20.336 145.537 18.768C146.041 17.956 146.657 17.312 147.385 16.836C148.113 16.332 148.757 16.08 149.317 16.08C150.129 16.08 150.535 16.57 150.535 17.55C150.535 18.39 149.975 19.412 148.855 20.616C147.819 21.68 146.839 22.408 145.915 22.8C145.887 22.912 145.859 23.038 145.831 23.178C145.831 23.29 145.831 23.416 145.831 23.556C145.831 25.32 146.881 26.202 148.981 26.202C150.185 26.202 151.305 25.838 152.341 25.11C153.405 24.354 154.329 23.5 155.113 22.548C155.253 22.38 155.379 22.296 155.491 22.296C155.603 22.296 155.659 22.352 155.659 22.464C155.659 22.576 155.603 22.73 155.491 22.926C155.379 23.094 155.295 23.206 155.239 23.262C154.791 23.878 154.315 24.424 153.811 24.9C153.335 25.376 152.691 25.838 151.879 26.286C151.291 26.65 150.675 26.916 150.031 27.084C149.415 27.252 148.827 27.336 148.267 27.336ZM146.083 21.918C146.447 21.722 146.797 21.498 147.133 21.246C147.497 20.966 147.847 20.644 148.183 20.28C148.939 19.384 149.317 18.6 149.317 17.928C149.317 17.508 149.191 17.298 148.939 17.298C148.715 17.298 148.421 17.494 148.057 17.886C147.721 18.25 147.399 18.712 147.091 19.272C146.559 20.364 146.223 21.246 146.083 21.918ZM165.78 27.336C164.632 27.336 163.638 27.014 162.798 26.37C161.986 25.698 161.58 24.69 161.58 23.346C161.58 21.862 162.07 20.336 163.05 18.768C163.554 17.956 164.17 17.312 164.898 16.836C165.626 16.332 166.27 16.08 166.83 16.08C167.642 16.08 168.048 16.57 168.048 17.55C168.048 18.39 167.488 19.412 166.368 20.616C165.332 21.68 164.352 22.408 163.428 22.8C163.4 22.912 163.372 23.038 163.344 23.178C163.344 23.29 163.344 23.416 163.344 23.556C163.344 25.32 164.394 26.202 166.494 26.202C167.698 26.202 168.818 25.838 169.854 25.11C170.918 24.354 171.842 23.5 172.626 22.548C172.766 22.38 172.892 22.296 173.004 22.296C173.116 22.296 173.172 22.352 173.172 22.464C173.172 22.576 173.116 22.73 173.004 22.926C172.892 23.094 172.808 23.206 172.752 23.262C172.304 23.878 171.828 24.424 171.324 24.9C170.848 25.376 170.204 25.838 169.392 26.286C168.804 26.65 168.188 26.916 167.544 27.084C166.928 27.252 166.34 27.336 165.78 27.336ZM163.596 21.918C163.96 21.722 164.31 21.498 164.646 21.246C165.01 20.966 165.36 20.644 165.696 20.28C166.452 19.384 166.83 18.6 166.83 17.928C166.83 17.508 166.704 17.298 166.452 17.298C166.228 17.298 165.934 17.494 165.57 17.886C165.234 18.25 164.912 18.712 164.604 19.272C164.072 20.364 163.736 21.246 163.596 21.918ZM172.783 27.714C172.671 27.714 172.615 27.644 172.615 27.504C172.615 27.252 173.231 26.398 174.463 24.942C175.163 24.13 175.709 23.5 176.101 23.052C176.493 22.576 176.717 22.268 176.773 22.128C176.605 21.652 176.339 21.134 175.975 20.574C175.471 19.818 175.079 19.44 174.799 19.44C174.687 19.44 174.547 19.538 174.379 19.734C174.239 19.93 174.085 20.028 173.917 20.028C173.721 20.028 173.623 19.93 173.623 19.734C173.623 19.566 173.903 19.286 174.463 18.894C175.079 18.502 175.471 18.306 175.639 18.306C176.059 18.306 176.563 18.684 177.151 19.44C177.599 20.056 177.935 20.63 178.159 21.162L181.729 18.726C183.661 17.382 184.753 16.71 185.005 16.71C185.117 16.71 185.173 16.766 185.173 16.878C185.173 16.962 185.145 17.06 185.089 17.172C184.501 17.564 183.913 17.97 183.325 18.39C182.765 18.782 182.205 19.174 181.645 19.566C180.777 20.182 180.091 20.7 179.587 21.12C179.111 21.512 178.803 21.82 178.663 22.044C180.007 24.536 181.085 25.782 181.897 25.782C182.205 25.782 182.527 25.684 182.863 25.488C183.199 25.264 183.661 24.858 184.249 24.27C184.529 23.99 184.795 23.71 185.047 23.43C185.327 23.122 185.565 22.828 185.761 22.548C185.817 22.492 185.873 22.422 185.929 22.338C186.013 22.254 186.111 22.212 186.223 22.212C186.391 22.212 186.433 22.324 186.349 22.548C186.321 22.66 186.251 22.8 186.139 22.968C186.055 23.108 185.985 23.206 185.929 23.262C184.837 24.662 183.885 25.642 183.073 26.202C182.261 26.734 181.477 27 180.721 27C179.797 27 178.635 25.656 177.235 22.968C177.123 23.08 176.857 23.36 176.437 23.808C176.045 24.228 175.513 24.816 174.841 25.572C173.581 27 172.895 27.714 172.783 27.714ZM180.488 46.992C179.732 46.992 179.2 46.432 178.892 45.312C178.864 45.256 178.85 45.032 178.85 44.64C178.85 42.568 180.348 39.096 183.344 34.224C184.632 32.068 185.836 30.178 186.956 28.554C188.104 26.958 189.154 25.614 190.106 24.522C190.106 21.862 189.77 20.532 189.098 20.532C188.846 20.532 188.44 20.77 187.88 21.246C187.32 21.694 186.676 22.366 185.948 23.262C185.724 23.542 185.528 23.682 185.36 23.682C185.22 23.682 185.15 23.612 185.15 23.472C185.15 23.444 185.192 23.36 185.276 23.22C185.36 23.052 185.528 22.828 185.78 22.548C186.228 21.988 186.704 21.4 187.208 20.784C187.74 20.14 188.258 19.608 188.762 19.188C189.266 18.74 189.728 18.516 190.148 18.516C190.988 18.516 191.492 18.88 191.66 19.608L191.828 21.624C194.096 18.572 195.958 17.046 197.414 17.046C198.926 17.046 199.682 17.718 199.682 19.062C199.682 20.462 198.982 22.114 197.582 24.018C196.126 26.006 194.712 27 193.34 27C192.528 27 191.884 26.72 191.408 26.16C191.492 28.176 191.226 30.29 190.61 32.502C190.022 34.742 189.112 37.094 187.88 39.558C185.304 44.514 182.84 46.992 180.488 46.992ZM193.466 26.118C194.586 26.118 195.58 25.404 196.448 23.976C197.232 22.66 197.624 21.428 197.624 20.28C197.624 19.076 197.218 18.474 196.406 18.474C195.426 18.474 193.9 19.944 191.828 22.884C191.828 23.304 191.786 23.934 191.702 24.774C192.094 25.67 192.682 26.118 193.466 26.118ZM181.412 45.9C183.148 45.816 185.01 43.226 186.998 38.13C189.014 33.258 189.952 29.184 189.812 25.908C188.356 27.42 186.48 30.416 184.184 34.896C182.98 37.248 182.098 39.236 181.538 40.86C180.95 42.484 180.656 43.744 180.656 44.64C180.656 45.48 180.908 45.9 181.412 45.9ZM205.525 27.336C204.377 27.336 203.383 27.014 202.543 26.37C201.731 25.698 201.325 24.69 201.325 23.346C201.325 21.862 201.815 20.336 202.795 18.768C203.299 17.956 203.915 17.312 204.643 16.836C205.371 16.332 206.015 16.08 206.575 16.08C207.387 16.08 207.793 16.57 207.793 17.55C207.793 18.39 207.233 19.412 206.113 20.616C205.077 21.68 204.097 22.408 203.173 22.8C203.145 22.912 203.117 23.038 203.089 23.178C203.089 23.29 203.089 23.416 203.089 23.556C203.089 25.32 204.139 26.202 206.239 26.202C207.443 26.202 208.563 25.838 209.599 25.11C210.663 24.354 211.587 23.5 212.371 22.548C212.511 22.38 212.637 22.296 212.749 22.296C212.861 22.296 212.917 22.352 212.917 22.464C212.917 22.576 212.861 22.73 212.749 22.926C212.637 23.094 212.553 23.206 212.497 23.262C212.049 23.878 211.573 24.424 211.069 24.9C210.593 25.376 209.949 25.838 209.137 26.286C208.549 26.65 207.933 26.916 207.289 27.084C206.673 27.252 206.085 27.336 205.525 27.336ZM203.341 21.918C203.705 21.722 204.055 21.498 204.391 21.246C204.755 20.966 205.105 20.644 205.441 20.28C206.197 19.384 206.575 18.6 206.575 17.928C206.575 17.508 206.449 17.298 206.197 17.298C205.973 17.298 205.679 17.494 205.315 17.886C204.979 18.25 204.657 18.712 204.349 19.272C203.817 20.364 203.481 21.246 203.341 21.918ZM219.037 27.21C218.029 27.21 217.525 26.58 217.525 25.32C217.525 24.648 217.777 23.808 218.281 22.8C218.757 21.68 218.995 20.868 218.995 20.364C218.995 20 218.855 19.72 218.575 19.524C218.323 19.328 218.001 19.146 217.609 18.978C217.329 18.838 217.035 18.67 216.727 18.474C216.419 18.278 216.167 18.082 215.971 17.886C215.775 18.306 215.341 19.034 214.669 20.07C213.997 21.106 213.269 22.17 212.485 23.262C212.373 23.402 212.261 23.472 212.149 23.472C212.037 23.472 211.981 23.374 211.981 23.178C211.981 22.982 212.093 22.772 212.317 22.548C212.541 22.268 212.863 21.82 213.283 21.204C213.703 20.56 214.123 19.874 214.543 19.146C214.963 18.39 215.285 17.732 215.509 17.172C215.369 16.696 215.257 16.29 215.173 15.954C215.089 15.618 215.047 15.282 215.047 14.946C215.047 14.358 215.215 13.826 215.551 13.35C215.887 12.874 216.321 12.636 216.853 12.636C217.609 12.636 217.987 13.084 217.987 13.98C217.987 14.96 217.609 15.982 216.853 17.046C216.965 17.214 217.105 17.354 217.273 17.466C217.441 17.578 217.707 17.704 218.071 17.844C218.267 17.928 218.449 17.984 218.617 18.012C218.813 18.04 218.981 18.054 219.121 18.054C219.345 18.054 219.527 18.04 219.667 18.012C219.835 17.984 219.975 17.97 220.087 17.97C220.255 17.97 220.451 18.068 220.675 18.264C220.927 18.432 221.053 18.698 221.053 19.062C221.053 19.258 221.039 19.384 221.011 19.44C220.983 19.496 220.899 19.734 220.759 20.154C220.647 20.546 220.437 21.106 220.129 21.834C219.569 23.29 219.289 24.312 219.289 24.9C219.289 25.684 219.555 26.076 220.087 26.076C220.675 26.076 221.375 25.726 222.187 25.026C223.027 24.326 223.797 23.5 224.497 22.548C224.581 22.464 224.651 22.422 224.707 22.422C224.819 22.422 224.875 22.52 224.875 22.716C224.875 22.912 224.805 23.094 224.665 23.262C223.545 24.746 222.537 25.782 221.641 26.37C220.745 26.93 219.877 27.21 219.037 27.21ZM228.321 14.232C227.985 14.232 227.677 14.078 227.397 13.77C227.117 13.462 226.977 13.14 226.977 12.804C226.977 12.02 227.411 11.628 228.279 11.628C229.119 11.628 229.539 12.034 229.539 12.846C229.539 13.77 229.133 14.232 228.321 14.232ZM227.775 27.336C226.823 27.336 226.025 27.014 225.381 26.37C224.765 25.698 224.457 24.732 224.457 23.472C224.457 21.932 224.877 20.364 225.717 18.768C226.025 18.18 226.557 17.886 227.313 17.886C227.761 17.886 227.985 18.026 227.985 18.306C227.985 18.39 227.943 18.516 227.859 18.684C226.879 20.56 226.389 22.17 226.389 23.514C226.389 24.494 226.557 25.208 226.893 25.656C227.257 26.104 227.747 26.328 228.363 26.328C229.343 26.328 230.323 25.964 231.303 25.236C232.283 24.48 233.235 23.57 234.159 22.506C234.243 22.366 234.369 22.296 234.537 22.296C234.649 22.296 234.705 22.352 234.705 22.464C234.705 22.548 234.649 22.674 234.537 22.842C234.453 22.982 234.369 23.122 234.285 23.262C233.921 23.738 233.487 24.228 232.983 24.732C232.479 25.236 231.891 25.712 231.219 26.16C230.687 26.524 230.113 26.804 229.497 27C228.909 27.224 228.335 27.336 227.775 27.336ZM238.337 27.336C237.189 27.336 236.195 27.014 235.355 26.37C234.543 25.698 234.137 24.69 234.137 23.346C234.137 21.862 234.627 20.336 235.607 18.768C236.111 17.956 236.727 17.312 237.455 16.836C238.183 16.332 238.827 16.08 239.387 16.08C240.199 16.08 240.605 16.57 240.605 17.55C240.605 18.39 240.045 19.412 238.925 20.616C237.889 21.68 236.909 22.408 235.985 22.8C235.957 22.912 235.929 23.038 235.901 23.178C235.901 23.29 235.901 23.416 235.901 23.556C235.901 25.32 236.951 26.202 239.051 26.202C240.255 26.202 241.375 25.838 242.411 25.11C243.475 24.354 244.399 23.5 245.183 22.548C245.323 22.38 245.449 22.296 245.561 22.296C245.673 22.296 245.729 22.352 245.729 22.464C245.729 22.576 245.673 22.73 245.561 22.926C245.449 23.094 245.365 23.206 245.309 23.262C244.861 23.878 244.385 24.424 243.881 24.9C243.405 25.376 242.761 25.838 241.949 26.286C241.361 26.65 240.745 26.916 240.101 27.084C239.485 27.252 238.897 27.336 238.337 27.336ZM236.153 21.918C236.517 21.722 236.867 21.498 237.203 21.246C237.567 20.966 237.917 20.644 238.253 20.28C239.009 19.384 239.387 18.6 239.387 17.928C239.387 17.508 239.261 17.298 239.009 17.298C238.785 17.298 238.491 17.494 238.127 17.886C237.791 18.25 237.469 18.712 237.161 19.272C236.629 20.364 236.293 21.246 236.153 21.918ZM244.961 27.378C244.765 27.378 244.555 27.252 244.331 27C244.135 26.748 244.037 26.524 244.037 26.328V26.202L244.415 25.488C244.639 24.844 244.863 24.074 245.087 23.178C245.311 22.254 245.521 21.204 245.717 20.028C245.745 19.748 245.787 19.454 245.843 19.146C245.899 18.81 245.955 18.432 246.011 18.012C246.151 17.452 246.585 17.172 247.313 17.172C247.537 17.172 247.649 17.256 247.649 17.424C247.649 17.48 247.621 17.676 247.565 18.012C247.509 18.348 247.425 18.81 247.313 19.398C247.201 20.042 247.061 20.742 246.893 21.498C246.753 22.254 246.585 23.066 246.389 23.934L248.363 20.616C249.343 18.964 250.169 18.138 250.841 18.138C251.261 18.138 251.485 18.39 251.513 18.894C251.597 20.07 251.653 21.232 251.681 22.38C251.737 23.528 251.891 24.48 252.143 25.236C252.423 25.992 252.913 26.37 253.613 26.37C254.089 26.37 254.551 26.272 254.999 26.076C255.475 25.88 256.007 25.516 256.595 24.984C257.183 24.424 257.883 23.612 258.695 22.548C258.723 22.492 258.779 22.422 258.863 22.338C258.947 22.254 259.045 22.212 259.157 22.212C259.269 22.212 259.325 22.268 259.325 22.38C259.325 22.492 259.255 22.646 259.115 22.842C259.003 23.038 258.919 23.178 258.863 23.262C258.107 24.382 257.253 25.32 256.301 26.076C255.349 26.832 254.453 27.21 253.613 27.21C252.381 27.21 251.471 26.594 250.883 25.362C250.323 24.102 249.931 22.324 249.707 20.028C249.259 20.504 248.727 21.218 248.111 22.17C247.523 23.122 246.837 24.34 246.053 25.824C245.997 25.964 245.913 26.132 245.801 26.328C245.689 26.496 245.563 26.72 245.423 27C245.311 27.252 245.157 27.378 244.961 27.378ZM261.981 27.294C260.945 27.294 260.133 26.944 259.545 26.244C258.957 25.516 258.663 24.62 258.663 23.556C258.663 22.24 259.307 20.784 260.595 19.188C261.911 17.62 263.227 16.836 264.543 16.836C265.551 16.836 266.055 17.214 266.055 17.97C266.055 18.25 265.859 18.754 265.467 19.482C265.103 20.238 264.837 20.616 264.669 20.616C264.585 20.616 264.529 20.518 264.501 20.322C264.501 20.21 264.529 20.028 264.585 19.776C264.669 19.524 264.711 19.342 264.711 19.23C264.711 18.53 264.291 18.18 263.451 18.18C262.527 18.18 261.729 18.768 261.057 19.944C260.469 20.98 260.175 22.016 260.175 23.052C260.175 25.124 261.043 26.16 262.779 26.16C264.179 26.16 265.355 25.824 266.307 25.152C267.259 24.452 268.197 23.57 269.121 22.506C269.261 22.366 269.387 22.296 269.499 22.296C269.611 22.296 269.667 22.352 269.667 22.464C269.667 22.576 269.611 22.702 269.499 22.842C269.415 22.982 269.331 23.122 269.247 23.262C268.883 23.738 268.435 24.242 267.903 24.774C267.399 25.306 266.825 25.768 266.181 26.16C265.397 26.608 264.655 26.902 263.955 27.042C263.255 27.21 262.597 27.294 261.981 27.294ZM273.282 27.336C272.134 27.336 271.14 27.014 270.3 26.37C269.488 25.698 269.082 24.69 269.082 23.346C269.082 21.862 269.572 20.336 270.552 18.768C271.056 17.956 271.672 17.312 272.4 16.836C273.128 16.332 273.772 16.08 274.332 16.08C275.144 16.08 275.55 16.57 275.55 17.55C275.55 18.39 274.99 19.412 273.87 20.616C272.834 21.68 271.854 22.408 270.93 22.8C270.902 22.912 270.874 23.038 270.846 23.178C270.846 23.29 270.846 23.416 270.846 23.556C270.846 25.32 271.896 26.202 273.996 26.202C275.2 26.202 276.32 25.838 277.356 25.11C278.42 24.354 279.344 23.5 280.128 22.548C280.268 22.38 280.394 22.296 280.506 22.296C280.618 22.296 280.674 22.352 280.674 22.464C280.674 22.576 280.618 22.73 280.506 22.926C280.394 23.094 280.31 23.206 280.254 23.262C279.806 23.878 279.33 24.424 278.826 24.9C278.35 25.376 277.706 25.838 276.894 26.286C276.306 26.65 275.69 26.916 275.046 27.084C274.43 27.252 273.842 27.336 273.282 27.336ZM271.098 21.918C271.462 21.722 271.812 21.498 272.148 21.246C272.512 20.966 272.862 20.644 273.198 20.28C273.954 19.384 274.332 18.6 274.332 17.928C274.332 17.508 274.206 17.298 273.954 17.298C273.73 17.298 273.436 17.494 273.072 17.886C272.736 18.25 272.414 18.712 272.106 19.272C271.574 20.364 271.238 21.246 271.098 21.918ZM284.065 27.126C283.785 27.126 283.491 27.084 283.183 27C282.343 26.804 281.405 26.244 280.369 25.32C279.249 24.284 278.689 23.402 278.689 22.674C278.689 22.058 278.927 21.75 279.403 21.75C279.767 21.75 280.117 21.974 280.453 22.422C281.433 21.638 282.357 20.742 283.225 19.734C284.093 18.726 284.891 17.592 285.619 16.332L286.543 14.736C286.571 14.624 286.655 14.568 286.795 14.568C287.075 14.568 287.355 14.75 287.635 15.114C287.943 15.45 288.097 15.758 288.097 16.038C288.097 16.234 287.929 16.584 287.593 17.088C287.229 17.536 287.047 18.012 287.047 18.516C287.047 18.712 287.061 19.02 287.089 19.44C287.117 19.832 287.131 20.14 287.131 20.364C287.131 22.94 286.711 24.844 285.871 26.076C286.039 26.104 286.221 26.132 286.417 26.16C286.641 26.16 286.851 26.16 287.047 26.16C288.167 26.16 289.077 26.062 289.777 25.866C290.505 25.642 291.163 25.264 291.751 24.732C292.339 24.2 292.983 23.472 293.683 22.548C293.767 22.436 293.865 22.38 293.977 22.38C294.089 22.38 294.145 22.464 294.145 22.632C294.145 22.716 294.103 22.828 294.019 22.968C293.963 23.108 293.907 23.206 293.851 23.262C292.843 24.634 291.807 25.6 290.743 26.16C289.707 26.72 288.335 27 286.627 27C286.095 27 285.577 26.958 285.073 26.874C284.793 27.042 284.457 27.126 284.065 27.126ZM284.106 25.572C285.003 25.404 285.451 24.228 285.451 22.044C285.451 21.484 285.423 20.924 285.367 20.364C285.339 19.776 285.269 19.174 285.157 18.558C284.149 20.042 282.735 21.54 280.915 23.052C281.755 24.2 282.819 25.04 284.106 25.572Z" fill="white"/>
</svg>
