<svg width="54" height="22" viewBox="0 0 54 22" fill="none" xmlns="http://www.w3.org/2000/svg">
<g id="mainText">
<path id="Vector" d="M37.5014 12.92C38.2374 12.92 38.8694 13.044 39.3974 13.292C39.9254 13.532 40.3894 13.916 40.7894 14.444L39.6494 15.56C39.4414 15.128 39.1654 14.808 38.8214 14.6C38.4774 14.384 38.0414 14.276 37.5134 14.276C37.0334 14.276 36.6614 14.368 36.3974 14.552C36.1414 14.728 36.0134 14.964 36.0134 15.26C36.0134 15.532 36.1454 15.748 36.4094 15.908C36.6734 16.068 37.1494 16.208 37.8374 16.328C38.5574 16.464 39.1294 16.632 39.5534 16.832C39.9774 17.032 40.2854 17.284 40.4774 17.588C40.6774 17.884 40.7774 18.256 40.7774 18.704C40.7774 19.192 40.6374 19.616 40.3574 19.976C40.0854 20.328 39.7014 20.6 39.2054 20.792C38.7174 20.984 38.1574 21.08 37.5254 21.08C36.6534 21.08 35.9374 20.96 35.3774 20.72C34.8254 20.472 34.3774 20.1 34.0334 19.604L35.0174 18.428C35.3134 18.916 35.6534 19.256 36.0374 19.448C36.4214 19.632 36.8974 19.724 37.4654 19.724C37.9774 19.724 38.3654 19.644 38.6294 19.484C38.9014 19.324 39.0374 19.096 39.0374 18.8C39.0374 18.584 38.9094 18.404 38.6534 18.26C38.4054 18.116 37.9574 17.98 37.3094 17.852C36.5654 17.7 35.9694 17.52 35.5214 17.312C35.0814 17.104 34.7614 16.848 34.5614 16.544C34.3614 16.24 34.2614 15.864 34.2614 15.416C34.2614 14.944 34.3894 14.52 34.6454 14.144C34.9014 13.76 35.2734 13.46 35.7614 13.244C36.2574 13.028 36.8374 12.92 37.5014 12.92Z" fill="#160736"/>
<path id="Vector_2" d="M29.3331 17.924H27.8451V20.96H26.2131V13.04H29.7051C30.6091 13.04 31.3131 13.256 31.8171 13.688C32.3291 14.112 32.5851 14.712 32.5851 15.488C32.5851 16.056 32.4451 16.532 32.1651 16.916C31.8851 17.3 31.4851 17.576 30.9651 17.744L33.0531 20.96H31.1931L29.3331 17.924ZM27.8451 16.664H29.4891C29.9691 16.664 30.3211 16.572 30.5451 16.388C30.7771 16.196 30.8931 15.904 30.8931 15.512C30.8931 15.12 30.7771 14.832 30.5451 14.648C30.3211 14.456 29.9691 14.36 29.4891 14.36H27.8451V16.664Z" fill="#160736"/>
<path id="Vector_3" d="M24.043 17.84C24.043 18.912 23.755 19.72 23.179 20.264C22.611 20.808 21.771 21.08 20.659 21.08C19.547 21.08 18.703 20.808 18.127 20.264C17.559 19.72 17.275 18.912 17.275 17.84V13.04H18.931V17.768C18.931 18.432 19.071 18.924 19.351 19.244C19.639 19.564 20.075 19.724 20.659 19.724C21.243 19.724 21.675 19.564 21.955 19.244C22.235 18.924 22.375 18.432 22.375 17.768V13.04H24.043V17.84Z" fill="#160736"/>
<path id="Vector_4" d="M11.6805 12.92C12.4565 12.92 13.1285 13.084 13.6965 13.412C14.2725 13.74 14.7125 14.212 15.0165 14.828C15.3285 15.436 15.4845 16.16 15.4845 17C15.4845 17.84 15.3285 18.568 15.0165 19.184C14.7125 19.792 14.2725 20.26 13.6965 20.588C13.1285 20.916 12.4565 21.08 11.6805 21.08C10.9045 21.08 10.2285 20.916 9.6525 20.588C9.0765 20.26 8.6325 19.792 8.3205 19.184C8.0165 18.568 7.8645 17.84 7.8645 17C7.8645 16.16 8.0165 15.436 8.3205 14.828C8.6325 14.212 9.0765 13.74 9.6525 13.412C10.2285 13.084 10.9045 12.92 11.6805 12.92ZM11.6805 14.276C11.0085 14.276 10.4885 14.512 10.1205 14.984C9.7605 15.448 9.5805 16.12 9.5805 17C9.5805 17.88 9.7605 18.556 10.1205 19.028C10.4885 19.492 11.0085 19.724 11.6805 19.724C12.3445 19.724 12.8565 19.492 13.2165 19.028C13.5845 18.556 13.7685 17.88 13.7685 17C13.7685 16.12 13.5845 15.448 13.2165 14.984C12.8565 14.512 12.3445 14.276 11.6805 14.276Z" fill="#160736"/>
<path id="Vector_5" d="M6.972 14.372H4.32V20.96H2.664V14.372H0V13.04H6.972V14.372Z" fill="#160736"/>
<path id="Vector_6" d="M53.2605 8.96H51.3645L48.5925 4.304L47.9085 2.972H47.8965L47.9445 4.376V8.96H46.4565V1.04H48.3405L51.1125 5.684L51.7965 7.028H51.8205L51.7725 5.624V1.04H53.2605V8.96Z" fill="#160736"/>
<path id="Vector_7" d="M42.6658 7.028H39.6178L38.9698 8.96H37.2778L40.1698 1.04H42.1498L45.0418 8.96H43.3258L42.6658 7.028ZM42.2578 5.804L41.5138 3.572L41.1538 2.372H41.1298L40.7938 3.548L40.0258 5.804H42.2578Z" fill="#160736"/>
<path id="Vector_8" d="M35.8669 8.96H34.2109V1.04H35.8669V8.96Z" fill="#160736"/>
<path id="Vector_9" d="M29.5371 1.04C30.4571 1.04 31.1731 1.264 31.6851 1.712C32.1971 2.152 32.4531 2.776 32.4531 3.584C32.4531 4.368 32.1971 4.98 31.6851 5.42C31.1731 5.86 30.4571 6.08 29.5371 6.08H27.8691V8.96H26.2131V1.04H29.5371ZM29.2851 4.796C29.7971 4.796 30.1731 4.696 30.4131 4.496C30.6531 4.288 30.7731 3.98 30.7731 3.572C30.7731 3.164 30.6531 2.86 30.4131 2.66C30.1731 2.46 29.7971 2.36 29.2851 2.36H27.8691V4.796H29.2851Z" fill="#160736"/>
<path id="Vector_10" d="M20.4986 0.919998C21.2746 0.919998 21.9466 1.084 22.5146 1.412C23.0906 1.74 23.5306 2.212 23.8346 2.828C24.1466 3.436 24.3026 4.16 24.3026 5C24.3026 5.84 24.1466 6.568 23.8346 7.184C23.5306 7.792 23.0906 8.26 22.5146 8.588C21.9466 8.916 21.2746 9.08 20.4986 9.08C19.7226 9.08 19.0466 8.916 18.4706 8.588C17.8946 8.26 17.4506 7.792 17.1386 7.184C16.8346 6.568 16.6826 5.84 16.6826 5C16.6826 4.16 16.8346 3.436 17.1386 2.828C17.4506 2.212 17.8946 1.74 18.4706 1.412C19.0466 1.084 19.7226 0.919998 20.4986 0.919998ZM20.4986 2.276C19.8266 2.276 19.3066 2.512 18.9386 2.984C18.5786 3.448 18.3986 4.12 18.3986 5C18.3986 5.88 18.5786 6.556 18.9386 7.028C19.3066 7.492 19.8266 7.724 20.4986 7.724C21.1626 7.724 21.6746 7.492 22.0346 7.028C22.4026 6.556 22.5866 5.88 22.5866 5C22.5866 4.12 22.4026 3.448 22.0346 2.984C21.6746 2.512 21.1626 2.276 20.4986 2.276Z" fill="#160736"/>
<path id="Vector_11" d="M15.7901 2.372H13.1381V8.96H11.4821V2.372H8.81812V1.04H15.7901V2.372Z" fill="#160736"/>
<path id="Vector_12" d="M7.35601 5.84C7.35601 6.912 7.06801 7.72 6.49201 8.264C5.92401 8.808 5.08401 9.08 3.97201 9.08C2.86001 9.08 2.01601 8.808 1.44001 8.264C0.872013 7.72 0.588013 6.912 0.588013 5.84V1.04H2.24401V5.768C2.24401 6.432 2.38401 6.924 2.66401 7.244C2.95201 7.564 3.38801 7.724 3.97201 7.724C4.55601 7.724 4.98801 7.564 5.26801 7.244C5.54801 6.924 5.68801 6.432 5.68801 5.768V1.04H7.35601V5.84Z" fill="#160736"/>
</g>
</svg>
