<svg width="96" height="96" viewBox="0 0 96 96" fill="none" xmlns="http://www.w3.org/2000/svg">
<g clip-path="url(#clip0_1507_268)">
<path d="M95.9803 48.0859C96.5202 68.2964 86.387 85.4067 67.0982 92.8816C39.2662 103.499 7.91596 85.8466 1.32814 57.3582C-4.16274 34.8702 7.77946 11.651 29.62 3.22564C61.258 -8.92745 95.2855 14.8389 95.9803 48.0859ZM94.2537 48.0859C94.5624 35.928 89.759 24.2696 80.9317 15.8223C51.8565 -11.4134 5.0789 9.23089 3.19737 48.0859C2.02049 73.2195 23.0137 94.01 48.3714 92.8694C63.1482 92.3649 76.892 84.4075 85.3429 72.5615C90.5841 65.4948 94.089 56.9537 94.2537 48.0859Z" fill="white"/>
<path d="M0.934649 48.1542C0.324688 37.2697 7.48681 24.5195 15.4803 17.3638C19.9664 13.3315 27.0203 9.67692 31.964 15.0997C32.8764 16.0965 33.559 17.2164 34.1382 18.4021C34.5415 19.1601 34.8158 20.0179 34.9978 20.8283C35.4552 22.8975 35.5253 24.9557 35.3999 27.0225C34.18 38.565 30.369 49.5921 27.982 60.8642C27.4532 63.5049 26.9096 66.1529 26.965 68.757C26.9797 69.3225 27.0634 69.9951 27.2429 70.3875C27.2466 70.4009 27.2503 70.4009 27.2515 70.407C27.2527 70.4155 27.2527 70.4131 27.2515 70.4143C27.2503 70.418 27.2466 70.4131 27.2417 70.4094L27.238 70.4082C27.2355 70.4082 27.2343 70.407 27.2404 70.4131C27.9611 71.1345 29.1244 71.1796 30.1415 71.1564C31.8422 71.0724 33.4926 70.6337 35.1257 70.0816C36.8277 69.4955 38.526 68.7558 40.1886 67.9125C47.7762 64.0057 54.5842 58.366 59.3975 51.3189C65.5241 42.8813 69.8086 32.9314 70.576 22.5027L71.9668 22.605C71.1699 33.2885 66.824 43.4979 60.519 52.1195C58.7789 54.4592 56.8457 56.6405 54.9482 58.8547C49.4278 65.0964 43.1646 71.2527 35.2868 74.5503C32.0033 75.8334 28.0189 76.6865 24.7895 74.7257C22.683 73.4669 22.0213 71.2734 21.8553 69.0714C21.7656 67.9272 21.8 66.8633 21.8676 65.8251C22.1689 61.7879 22.9904 57.9797 23.8734 54.0985C26.2775 43.9183 29.4909 33.9904 31.3872 23.7456C31.6245 22.4564 31.8422 21.1951 31.7537 19.9266C31.7365 19.5086 31.6098 19.1284 31.4659 18.7421C31.1683 17.9146 30.7871 17.1287 30.3013 16.4304C28.7076 14.1114 26.162 13.4448 23.4737 14.1224C14.3685 16.6449 6.35912 28.3215 3.61184 36.9077C2.46201 40.4746 1.81885 44.3034 2.32182 48.0189L0.934649 48.1542Z" fill="white"/>
<path d="M95.7123 47.964C96.2534 58.1088 90.3001 69.2724 83.4737 76.5438C80.2382 79.8657 76.0484 83.3679 71.1995 83.7274C67.0318 83.9845 64.1984 81.2244 62.51 77.7185C61.4917 75.7602 61.1511 73.6703 60.9949 71.5646C60.7182 67.3007 61.6172 63.1514 62.3919 59.0288C64.4087 48.7926 67.7807 38.8549 69.8603 28.6833C70.1566 26.9188 70.4825 25.1908 70.2968 23.4726C70.2722 23.302 70.239 23.1643 70.2169 23.0911L74.8494 21.2949C75.4286 22.7511 75.4594 24.3061 75.4139 25.7842C75.2245 29.4827 74.4522 32.991 73.6504 36.5603C70.8232 48.8889 66.5707 60.8104 64.9179 73.3218C64.7937 74.466 64.7297 75.6322 64.967 76.74C65.0273 76.9227 65.1577 77.3176 65.2278 77.4979C67.4708 83.4946 72.6223 83.073 77.4135 80.1679C83.2228 76.5523 87.7471 70.6616 90.8031 64.6417C92.3378 61.555 93.5319 58.2611 94.1222 54.8734C94.512 52.6227 94.6289 50.3219 94.3239 48.0956L95.711 47.9603L95.7123 47.964Z" fill="white"/>
</g>
<defs>
<clipPath id="clip0_1507_268">
<rect width="96" height="96" fill="white"/>
</clipPath>
</defs>
</svg>
