<svg width="40" height="40" viewBox="0 0 40 40" fill="none" xmlns="http://www.w3.org/2000/svg">
<g id="letter logo" clip-path="url(#clip0_1309_713)">
<path id="Vector" d="M39.9918 20.0358C40.2167 28.4568 35.9946 35.5861 27.9576 38.7007C16.3609 43.1247 3.29832 35.7694 0.55339 23.8993C-1.73448 14.5293 3.24144 4.8546 12.3417 1.34402C25.5242 -3.71977 39.7023 6.18287 39.9918 20.0358ZM39.2724 20.0358C39.401 14.97 37.3996 10.1123 33.7216 6.59262C21.6069 -4.75558 2.11621 3.84621 1.33224 20.0358C0.841871 30.5081 9.58905 39.1708 20.1547 38.6956C26.3117 38.4854 32.0383 35.1698 35.5595 30.2339C37.7434 27.2895 39.2037 23.7307 39.2724 20.0358Z" fill="#160736"/>
<path id="Vector_2" d="M0.389407 20.0642C0.135256 15.529 3.11947 10.2164 6.45007 7.23492C8.31931 5.55478 11.2584 4.03204 13.3183 6.29153C13.6985 6.70686 13.9829 7.17349 14.2242 7.66753C14.3923 7.98335 14.5065 8.3408 14.5824 8.67845C14.773 9.54061 14.8022 10.3982 14.7499 11.2593C14.2416 16.0687 12.6537 20.6634 11.6591 25.3601C11.4388 26.4604 11.2123 27.5637 11.2354 28.6488C11.2415 28.8843 11.2764 29.1646 11.3512 29.3281C11.3527 29.3337 11.3543 29.3337 11.3548 29.3362C11.3553 29.3398 11.3553 29.3388 11.3548 29.3393C11.3543 29.3408 11.3527 29.3388 11.3507 29.3373L11.3491 29.3368C11.3481 29.3368 11.3476 29.3362 11.3502 29.3388C11.6504 29.6394 12.1352 29.6582 12.5589 29.6485C13.2676 29.6135 13.9552 29.4307 14.6357 29.2007C15.3448 28.9564 16.0525 28.6482 16.7452 28.2969C19.9067 26.669 22.7434 24.3192 24.7489 21.3829C27.3017 17.8672 29.0869 13.7214 29.4066 9.3761L29.9861 9.41875C29.6541 13.8702 27.8433 18.1241 25.2162 21.7164C24.4912 22.6913 23.6857 23.6002 22.895 24.5228C20.5949 27.1235 17.9852 29.6886 14.7028 31.0626C13.3347 31.5973 11.6745 31.9527 10.3289 31.1357C9.4512 30.6112 9.17553 29.6973 9.10636 28.7798C9.06895 28.303 9.0833 27.8597 9.11148 27.4271C9.23702 25.7449 9.5793 24.1582 9.94721 22.541C10.9489 18.2993 12.2878 14.1627 13.078 9.89401C13.1769 9.35681 13.2676 8.83129 13.2307 8.30272C13.2235 8.12856 13.1707 7.97014 13.1108 7.80919C12.9868 7.46443 12.8279 7.13693 12.6255 6.84599C11.9614 5.87974 10.9008 5.602 9.78067 5.88431C5.98687 6.93535 2.6496 11.8006 1.5049 15.3782C1.02581 16.8644 0.757822 18.4597 0.967394 20.0079L0.389407 20.0642Z" fill="#160736"/>
<path id="Vector_3" d="M39.8801 19.985C40.1055 24.212 37.625 28.8635 34.7807 31.8933C33.4326 33.2774 31.6868 34.7367 29.6664 34.8865C27.9299 34.9936 26.7493 33.8435 26.0458 32.3827C25.6215 31.5668 25.4796 30.696 25.4145 29.8186C25.2992 28.042 25.6738 26.3131 25.9966 24.5954C26.8369 20.3303 28.2419 16.1896 29.1084 11.9514C29.2319 11.2162 29.3677 10.4962 29.2903 9.78027C29.2801 9.70919 29.2662 9.65181 29.257 9.62135L31.1872 8.87292C31.4286 9.47969 31.4414 10.1276 31.4224 10.7435C31.3435 12.2845 31.0217 13.7463 30.6876 15.2335C29.5096 20.3704 27.7377 25.3377 27.0491 30.5508C26.9973 31.0276 26.9707 31.5135 27.0696 31.975C27.0947 32.0512 27.149 32.2157 27.1782 32.2908C28.1128 34.7895 30.2593 34.6138 32.2556 33.4033C34.6762 31.8968 36.5613 29.4424 37.8346 26.9341C38.4741 25.648 38.9716 24.2755 39.2176 22.864C39.38 21.9261 39.4287 20.9675 39.3016 20.0399L39.8796 19.9835L39.8801 19.985Z" fill="#160736"/>
</g>
<defs>
<clipPath id="clip0_1309_713">
<rect width="40" height="40" fill="white"/>
</clipPath>
</defs>
</svg>
