<svg width="24" height="24" viewBox="0 0 24 24" fill="none" xmlns="http://www.w3.org/2000/svg">
<g id="i / manager">
<path id="Union" fill-rule="evenodd" clip-rule="evenodd" d="M11.9759 4.50006C10.3263 4.50006 8.98896 5.83736 8.98896 7.487V8.98334C8.98896 10.633 10.3263 11.9703 11.9759 11.9703H11.9837C13.6334 11.9703 14.9707 10.633 14.9707 8.98334V8.2447H12.9003L12.8995 8.2447C12.2579 8.24407 11.6291 8.06509 11.0834 7.72774C10.5376 7.3904 10.0964 6.90797 9.80896 6.33434L11.15 5.66238C11.3129 5.98737 11.5629 6.26069 11.8721 6.45182C12.1812 6.64288 12.5373 6.74428 12.9007 6.7447H14.8777C14.5477 5.45417 13.3771 4.50006 11.9837 4.50006H11.9759ZM7.48896 7.487C7.48896 5.00893 9.49783 3.00006 11.9759 3.00006H11.9837C14.4618 3.00006 16.4707 5.00893 16.4707 7.487V8.98334C16.4707 10.3839 15.829 11.6346 14.8236 12.4574C16.1298 12.8944 17.3306 13.6304 18.3229 14.6227C20.0062 16.3061 20.9519 18.5891 20.9519 20.9697H19.4519C19.4519 19.0561 18.7182 17.2181 17.4067 15.8319L16.4629 16.7757V18.7056V19.2132L15.9916 19.4019L12.2547 20.8982L11.9759 21.0098L11.6971 20.8982L7.96019 19.4019L7.48898 19.2132V18.7056V16.7757L6.54521 15.8319C5.23708 17.2145 4.50363 19.0467 4.5 20.9555L3 20.9526C3.00453 18.575 3.95221 16.2963 5.63503 14.6167C6.62761 13.626 7.82812 12.8915 9.13383 12.4556C8.1297 11.6327 7.48896 10.3829 7.48896 8.98334V7.487ZM9.29242 13.992L9.32672 13.9789L10.8108 18.9275L8.98898 18.198V16.465V16.1543L8.76931 15.9347L7.8841 15.0495L9.29242 13.992ZM11.9759 17.5909L10.7763 13.5906C11.1704 13.5265 11.5715 13.4938 11.976 13.4938C12.3804 13.4938 12.7815 13.5265 13.1756 13.5906L11.9759 17.5909ZM13.1411 18.9275L14.9629 18.198V16.465V16.1543L15.1825 15.9347L16.0677 15.0495L14.6593 13.9919L14.6252 13.9789L13.1411 18.9275Z" fill="#160736"/>
</g>
</svg>
