<svg width="20" height="20" viewBox="0 0 20 20" fill="none" xmlns="http://www.w3.org/2000/svg">
<path fill-rule="evenodd" clip-rule="evenodd" d="M13.493 3.1403C12.4555 2.63536 11.3165 2.37363 10.1627 2.37501L10.1623 2.37501C8.85269 2.37595 7.56563 2.71575 6.42625 3.36136C5.28674 4.00704 4.33371 4.93663 3.65986 6.05971C2.98601 7.1828 2.61427 8.46115 2.58079 9.77045C2.54973 10.9851 2.8108 12.1881 3.34024 13.2788L2.59168 16.6409L2.33533 17.7923L3.48675 17.536L6.84833 16.7875C7.79867 17.2504 8.83624 17.5102 9.89469 17.5488C11.0479 17.591 12.1956 17.3696 13.2503 16.9014C14.3051 16.4333 15.2393 15.7309 15.9817 14.8474C16.7242 13.964 17.2554 12.9229 17.535 11.8033C17.8146 10.6837 17.8353 9.51509 17.5953 8.38633C17.3553 7.25756 16.8611 6.19838 16.1503 5.28933C15.4394 4.38028 14.5306 3.64531 13.493 3.1403ZM10.1641 3.875C11.09 3.87385 12.004 4.08385 12.8366 4.48905C13.6691 4.89424 14.3983 5.48395 14.9687 6.21333C15.539 6.94271 15.9356 7.79256 16.1281 8.69823C16.3206 9.6039 16.3041 10.5416 16.0797 11.4399C15.8554 12.3382 15.4292 13.1735 14.8334 13.8824C14.2377 14.5912 13.4882 15.1548 12.6419 15.5304C11.7956 15.906 10.8747 16.0836 9.94945 16.0498C9.02416 16.016 8.11875 15.7717 7.3021 15.3353L7.05696 15.2044L6.78567 15.2648L4.31219 15.8155L4.86289 13.342L4.92316 13.0713L4.79281 12.8265C4.2989 11.8989 4.05344 10.8593 4.0803 9.8088C4.10716 8.75827 4.40543 7.73257 4.9461 6.83146C5.48677 5.93034 6.25144 5.18448 7.16573 4.66641C8.08003 4.14835 9.11283 3.87571 10.1637 3.87501L10.1641 3.875ZM7.73215 5.82293L7.20182 5.2926L6.67149 5.82293L7.20182 6.35326C6.67149 5.82293 6.67115 5.82327 6.6708 5.82362L6.67005 5.82437L6.66837 5.82606L6.66431 5.83019L6.65344 5.8414C6.64501 5.85018 6.63425 5.86159 6.62141 5.87556C6.59576 5.90348 6.56174 5.94178 6.52154 5.99001C6.44132 6.08627 6.33548 6.22331 6.22214 6.39758C5.99673 6.74418 5.73333 7.25092 5.59106 7.88647C5.29471 9.21039 5.56051 10.9312 7.35267 12.7422C9.14814 14.5565 10.8728 14.8237 12.2033 14.5217C12.8411 14.3769 13.3508 14.11 13.6994 13.8822C13.8748 13.7676 14.0128 13.6607 14.1096 13.5798C14.1582 13.5392 14.1967 13.5049 14.2248 13.4791C14.2388 13.4662 14.2503 13.4554 14.2591 13.4469L14.2703 13.4361L14.2744 13.432L14.2761 13.4304L14.2768 13.4296C14.2772 13.4293 14.2775 13.4289 13.7472 12.8986L14.2775 13.4289L14.8078 12.8986L14.2775 12.3683L12.3214 10.4122L12.0793 10.17L11.7377 10.1944L11.6419 10.2013L11.492 10.212L11.3578 10.2796C11.1403 10.3892 10.8936 10.427 10.6532 10.3876C10.4128 10.3482 10.1912 10.2335 10.0201 10.0601L10.0201 10.0601L10.013 10.053C9.83957 9.88192 9.72491 9.66024 9.68546 9.41987C9.64602 9.17949 9.68383 8.9328 9.79346 8.71527L9.79453 8.71314L9.82872 8.64475L10.0705 8.16125L9.68823 7.77901L7.73215 5.82293ZM7.05484 8.21412C7.1142 7.94896 7.20659 7.71462 7.30576 7.51785L8.27692 8.48901C8.16605 8.86802 8.14066 9.26906 8.20526 9.66275C8.29582 10.2146 8.55856 10.7237 8.95585 11.1172C9.34935 11.5145 9.85843 11.7773 10.4103 11.8678C10.804 11.9324 11.2051 11.907 11.5841 11.7962L12.5851 12.7972C12.3838 12.9005 12.1433 12.9972 11.8713 13.0589C11.085 13.2374 9.87897 13.1626 8.41886 11.6871C6.95544 10.2083 6.87927 8.99846 7.05484 8.21412Z" fill="#160736"/>
</svg>
