<svg width="24" height="24" viewBox="0 0 24 24" fill="none" xmlns="http://www.w3.org/2000/svg">
<g id="i / whatsapp">
<path id="Union" fill-rule="evenodd" clip-rule="evenodd" d="M16.1259 3.90333C14.9014 3.30737 13.5571 2.99846 12.1953 3.0001L12.1948 3.0001C10.6492 3.0012 9.13013 3.40224 7.78537 4.16423C6.44048 4.92629 5.31568 6.02342 4.52038 7.34892C3.72508 8.67442 3.28634 10.1832 3.24682 11.7285C3.20972 13.1795 3.52582 14.6164 4.16604 15.9159L3.25635 20.0018L3 21.1532L4.15142 20.8968L8.23672 19.9873C9.37106 20.548 10.6124 20.8625 11.879 20.9088C13.2401 20.9585 14.5946 20.6972 15.8395 20.1447C17.0844 19.5922 18.1869 18.7632 19.0632 17.7205C19.9395 16.6779 20.5664 15.4491 20.8964 14.1277C21.2264 12.8063 21.2508 11.4271 20.9676 10.0949C20.6844 8.76266 20.1011 7.51258 19.2621 6.43969C18.4231 5.3668 17.3505 4.49935 16.1259 3.90333ZM12.1967 4.5001C13.3306 4.49868 14.4499 4.75586 15.4695 5.25207C16.489 5.74829 17.382 6.47047 18.0805 7.36369C18.779 8.25691 19.2646 9.29766 19.5003 10.4068C19.7361 11.5159 19.7159 12.6642 19.4411 13.7643C19.1664 14.8644 18.6444 15.8874 17.9149 16.7554C17.1853 17.6235 16.2674 18.3137 15.231 18.7737C14.1946 19.2336 13.0669 19.4512 11.9338 19.4098C10.8006 19.3684 9.69186 19.0692 8.69175 18.5348L8.44662 18.4038L8.17533 18.4642L4.97686 19.1763L5.68897 15.9779L5.74924 15.7072L5.61889 15.4624C5.01404 14.3265 4.71344 13.0533 4.74633 11.7668C4.77923 10.4803 5.1445 9.2242 5.80662 8.12066C6.46874 7.01713 7.40518 6.10373 8.52485 5.46928C9.64453 4.83484 10.9093 4.50096 12.1963 4.5001L12.1967 4.5001ZM9.17244 7.09367L8.64211 6.56334L8.11178 7.09367L8.64211 7.624C8.11178 7.09367 8.11144 7.09401 8.11108 7.09436L8.11032 7.09513L8.10857 7.0969L8.10423 7.1013L8.09227 7.11364C8.08289 7.12341 8.07072 7.1363 8.05608 7.15224C8.02682 7.18409 7.98759 7.22824 7.941 7.28414C7.84798 7.39575 7.72459 7.55545 7.59224 7.75897C7.32878 8.16407 7.02144 8.75566 6.85558 9.49661C6.51203 11.0314 6.81203 13.0453 8.92975 15.1852C11.0508 17.3285 13.0685 17.6299 14.6107 17.2798C15.3544 17.1111 15.9496 16.7995 16.3572 16.5332C16.562 16.3993 16.7229 16.2746 16.8353 16.1807C16.8916 16.1337 16.9361 16.0941 16.9681 16.0646C16.9842 16.0499 16.9971 16.0376 17.0069 16.0282L17.0193 16.0163L17.0237 16.0119L17.0254 16.0102L17.0262 16.0094C17.0265 16.0091 17.0269 16.0087 16.4965 15.4784L17.0269 16.0087L17.5572 15.4784L17.0269 14.9481L14.6796 12.6008L14.4374 12.3586L14.0958 12.383L13.9809 12.3912L13.831 12.4019L13.6968 12.4696C13.4074 12.6154 13.0792 12.6657 12.7595 12.6132C12.4397 12.5608 12.1448 12.4082 11.9172 12.1776L11.9173 12.1775L11.9101 12.1705C11.6795 11.9429 11.5269 11.648 11.4745 11.3282C11.422 11.0085 11.4723 10.6803 11.6181 10.3909L11.6192 10.3888L11.6602 10.3067L11.902 9.82321L11.5197 9.44097L9.17244 7.09367ZM8.31935 9.82427C8.4129 9.40636 8.57176 9.05037 8.7302 8.77275L10.1022 10.1447C9.95363 10.6027 9.91558 11.0917 9.99425 11.5711C10.0978 12.2024 10.3985 12.7847 10.853 13.2347C11.303 13.6892 11.8853 13.9899 12.5166 14.0934C12.996 14.1721 13.485 14.1341 13.943 13.9855L15.3499 15.3924C15.0674 15.5558 14.7044 15.7204 14.2787 15.8171C13.2807 16.0436 11.7816 15.9346 9.99594 14.1301C8.20696 12.3224 8.09659 10.8194 8.31935 9.82427ZM15.9683 14.946L15.9692 14.9451L15.9693 14.945C15.9693 14.945 15.9689 14.9454 15.968 14.9463L15.9683 14.946Z" fill="#160736"/>
</g>
</svg>
